<svg width="24" height="25" viewBox="0 0 24 25" fill="none" xmlns="http://www.w3.org/2000/svg">
<path fill-rule="evenodd" clip-rule="evenodd" d="M12 18.8545C17.6392 18.8545 20.2481 18.131 20.5 15.2273C20.5 12.3256 18.6812 12.5122 18.6812 8.95195C18.6812 6.17098 16.0452 3.00684 12 3.00684C7.95477 3.00684 5.31885 6.17098 5.31885 8.95195C5.31885 12.5122 3.5 12.3256 3.5 15.2273C3.75295 18.142 6.36177 18.8545 12 18.8545Z" stroke="black" stroke-width="2" stroke-linecap="round" stroke-linejoin="round"/>
<path d="M14.3888 21.8643C13.0247 23.379 10.8967 23.3969 9.51947 21.8643" stroke="black" stroke-width="2" stroke-linecap="round" stroke-linejoin="round"/>
<path d="M16 3.5C16 1.567 17.567 0 19.5 0C21.433 0 23 1.567 23 3.5C23 5.433 21.433 7 19.5 7C17.567 7 16 5.433 16 3.5Z" fill="#0CC76D"/>
</svg>
