<svg width="25" height="25" viewBox="0 0 25 25" fill="none" xmlns="http://www.w3.org/2000/svg">
<path fill-rule="evenodd" clip-rule="evenodd" d="M4.25244 11.0819C4.25244 7.20095 7.41044 4.04395 11.2914 4.04395C15.1714 4.04395 18.3294 7.20095 18.3294 11.0819C18.3294 14.9629 15.1714 18.1209 11.2914 18.1209C7.41044 18.1209 4.25244 14.9629 4.25244 11.0819ZM22.7474 21.5409L18.1484 16.9539C19.5044 15.3729 20.3294 13.3239 20.3294 11.0819C20.3294 6.09895 16.2744 2.04395 11.2914 2.04395C6.30744 2.04395 2.25244 6.09895 2.25244 11.0819C2.25244 16.0659 6.30744 20.1209 11.2914 20.1209C13.3134 20.1209 15.1764 19.4449 16.6834 18.3179L21.3354 22.9569C21.3354 22.9569 22 23.0005 22.5 22.5005C23 22.0005 22.7474 21.5409 22.7474 21.5409Z" fill="black"/>
</svg>
