<svg width="24" height="24" viewBox="0 0 24 24" fill="none" xmlns="http://www.w3.org/2000/svg">
<path fill-rule="evenodd" clip-rule="evenodd" d="M15.1421 13.1309H16.7401V11.6309H15.1421V13.1309ZM11.4071 13.1309H13.0061V11.6309H11.4071V13.1309ZM7.6731 13.1309H9.2721V11.6309H7.6731V13.1309ZM19.1081 5.11993C17.2731 3.28493 14.8321 2.27393 12.2321 2.27393C9.6331 2.27393 7.1901 3.28493 5.3551 5.12093C3.5151 6.95993 2.5031 9.40493 2.5051 12.0039C2.5051 14.6399 3.8891 17.1519 4.3911 17.9759L2.0481 21.7119L2.9611 21.7039C3.0191 21.7039 8.7711 21.6539 12.0211 21.7239C12.0941 21.7249 12.1661 21.7259 12.2381 21.7259C14.8341 21.7259 17.2661 20.7189 19.1081 18.8759C22.9001 15.0829 22.9001 8.91293 19.1081 5.11993Z" fill="black"/>
</svg>
