<svg width="24" height="24" viewBox="0 0 24 24" fill="none" xmlns="http://www.w3.org/2000/svg">
<path fill-rule="evenodd" clip-rule="evenodd" d="M7.80322 7.61819C7.80322 5.06763 9.87085 3 12.4214 3C14.972 3 17.0396 5.06763 17.0396 7.61819C17.0396 10.1687 14.972 12.2364 12.4214 12.2364C9.87085 12.2364 7.80322 10.1687 7.80322 7.61819ZM12.4214 4.62995C10.771 4.62995 9.43316 5.96783 9.43316 7.61819C9.43316 9.26855 10.771 10.6064 12.4214 10.6064C14.0718 10.6064 15.4096 9.26855 15.4096 7.61819C15.4096 5.96783 14.0718 4.62995 12.4214 4.62995Z" fill="black"/>
<path fill-rule="evenodd" clip-rule="evenodd" d="M8.07487 15.4963C6.72458 15.4963 5.62995 16.5909 5.62995 17.9412V19.2324C5.62995 19.2521 5.6442 19.2689 5.6636 19.272C10.1392 20.0027 14.7036 20.0027 19.1792 19.272C19.1986 19.2689 19.2129 19.2521 19.2129 19.2324V17.9412C19.2129 16.5909 18.1182 15.4963 16.7679 15.4963H16.3975C16.3689 15.4963 16.3404 15.5008 16.3132 15.5097L15.3727 15.8168C13.455 16.443 11.3878 16.443 9.47009 15.8168L8.5296 15.5097C8.50237 15.5008 8.47391 15.4963 8.44527 15.4963H8.07487ZM4 17.9412C4 15.6907 5.82438 13.8663 8.07487 13.8663H8.44527C8.64575 13.8663 8.84496 13.898 9.03554 13.9603L9.97603 14.2674C11.565 14.7862 13.2778 14.7862 14.8668 14.2674L15.8073 13.9603C15.9978 13.898 16.1971 13.8663 16.3975 13.8663H16.7679C19.0184 13.8663 20.8428 15.6907 20.8428 17.9412V19.2324C20.8428 20.0509 20.2496 20.7488 19.4418 20.8807C14.7923 21.6398 10.0505 21.6398 5.40097 20.8807C4.59318 20.7488 4 20.0509 4 19.2324V17.9412Z" fill="black"/>
</svg>
