<svg width="16" height="16" viewBox="0 0 16 16" fill="none" xmlns="http://www.w3.org/2000/svg">
<mask id="mask0_276_530" style="mask-type:luminance" maskUnits="userSpaceOnUse" x="0" y="0" width="16" height="16">
<path d="M16 0H0V16H16V0Z" fill="white"/>
</mask>
<g mask="url(#mask0_276_530)">
<path d="M15.68 8.18169C15.68 7.61441 15.6291 7.06897 15.5346 6.54529H8V9.63985H12.3054C12.12 10.6398 11.5564 11.4871 10.7091 12.0544V14.0617H13.2946C14.8073 12.669 15.68 10.618 15.68 8.18169Z" fill="#4285F4"/>
<path d="M8.00019 16.0003C10.1602 16.0003 11.9711 15.2839 13.2947 14.0622L10.7092 12.0549C9.99291 12.5349 9.07651 12.8185 8.00019 12.8185C5.91651 12.8185 4.15291 11.4112 3.52379 9.52032H0.851074V11.593C2.16747 14.2076 4.87291 16.0003 8.00019 16.0003Z" fill="#34A853"/>
<path d="M3.5236 9.51976C3.3636 9.03976 3.27272 8.52704 3.27272 7.99976C3.27272 7.47248 3.3636 6.95976 3.5236 6.47976V4.40704H0.85088C0.30912 5.48704 0 6.70888 0 7.99976C0 9.29064 0.30912 10.5125 0.85088 11.5925L3.5236 9.51976Z" fill="#FBBC04"/>
<path d="M8.00019 3.18184C9.17467 3.18184 10.2292 3.58544 11.0584 4.37816L13.3529 2.0836C11.9675 0.79272 10.1565 0 8.00019 0C4.87291 0 2.16747 1.79272 0.851074 4.40728L3.52379 6.48C4.15291 4.58912 5.91651 3.18184 8.00019 3.18184Z" fill="#E94235"/>
</g>
</svg>
