<svg width="27" height="27" viewBox="0 0 27 27" fill="none" xmlns="http://www.w3.org/2000/svg">
<path fill-rule="evenodd" clip-rule="evenodd" d="M18.6492 25.1645H8.72225C4.85112 25.1645 2.25012 22.4476 2.25012 18.4044V9.05114C2.25012 5.00789 4.85112 2.29102 8.72225 2.29102H12.9286C13.3944 2.29102 13.7724 2.66902 13.7724 3.13477C13.7724 3.60052 13.3944 3.97852 12.9286 3.97852H8.72225C5.81525 3.97852 3.93762 5.96977 3.93762 9.05114V18.4044C3.93762 21.4858 5.81525 23.477 8.72225 23.477H18.6492C21.5562 23.477 23.435 21.4858 23.435 18.4044V13.8729C23.435 13.4071 23.813 13.0291 24.2787 13.0291C24.7445 13.0291 25.1225 13.4071 25.1225 13.8729V18.4044C25.1225 22.4476 22.5204 25.1645 18.6492 25.1645" fill="white"/>
<path fill-rule="evenodd" clip-rule="evenodd" d="M9.97616 17.3565H13.3253C13.7528 17.3565 14.1533 17.1911 14.4559 16.8885L22.9035 8.44088C23.25 8.09438 23.4413 7.63313 23.4413 7.14263C23.4413 6.651 23.25 6.18862 22.9035 5.84212L21.5344 4.473C20.8178 3.75863 19.6523 3.75863 18.9345 4.473L10.5274 12.8801C10.236 13.1715 10.0707 13.5585 10.0605 13.9691L9.97616 17.3565ZM13.3253 19.044H9.11104C8.88379 19.044 8.66554 18.9518 8.50691 18.7886C8.34829 18.6266 8.26166 18.4073 8.26729 18.1789L8.37304 13.9275C8.39441 13.0815 8.73529 12.2861 9.33379 11.6865H9.33491L17.742 3.27938C19.1168 1.90687 21.3522 1.90687 22.7269 3.27938L24.096 4.6485C24.7632 5.3145 25.1299 6.19987 25.1288 7.14262C25.1288 8.08537 24.762 8.96963 24.096 9.6345L15.6484 18.0821C15.0285 18.702 14.2028 19.044 13.3253 19.044V19.044Z" fill="white"/>
<path fill-rule="evenodd" clip-rule="evenodd" d="M22.1974 11.1561C21.9814 11.1561 21.7654 11.074 21.6011 10.9086L16.4644 5.7719C16.1348 5.44227 16.1348 4.9079 16.4644 4.57827C16.794 4.24865 17.3273 4.24865 17.6569 4.57827L22.7936 9.71615C23.1233 10.0458 23.1233 10.579 22.7936 10.9086C22.6294 11.074 22.4134 11.1561 22.1974 11.1561" fill="white"/>
</svg>
